<?xml version="1.0" encoding="utf-8"?>
<svg xmlns="http://www.w3.org/2000/svg" width="137.401" height="67.382" viewBox="0 0 137.401 67.382">
  <g id="Group_1812" data-name="Group 1812" transform="translate(21628.578 8724.597)">
    <g id="Group_277" data-name="Group 277" transform="translate(-21628.139 -8674.352)">
      <path id="Path_435" data-name="Path 435" d="M397.582,85.569a1.921,1.921,0,0,1-1.342.5H394.4V80.7h1.84a1.855,1.855,0,0,1,1.342.5,2.763,2.763,0,0,1,.537,2.109A3.053,3.053,0,0,1,397.582,85.569ZM397.2,81.62a1.479,1.479,0,0,0-1.073-.383h-1.15v4.332h1.15a1.54,1.54,0,0,0,1.073-.383c.383-.383.345-1.188.345-1.84A2.7,2.7,0,0,0,397.2,81.62Z" transform="translate(-394.4 -80.7)"/>
      <path id="Path_436" data-name="Path 436" d="M407.337,87.032c0,.805.383,1.265,1.073,1.265a1.131,1.131,0,0,0,.958-.422l.383.307a1.685,1.685,0,0,1-1.342.575c-1,0-1.61-.575-1.61-1.879,0-1.188.575-1.879,1.534-1.879s1.534.69,1.534,1.8v.23ZM409.177,86a.929.929,0,0,0-.882-.575.969.969,0,0,0-.882.575,1.344,1.344,0,0,0-.115.613h1.955A1,1,0,0,0,409.177,86Z" transform="translate(-402.046 -83.351)"/>
      <path id="Path_437" data-name="Path 437" d="M419.977,88.719V88.3a1.369,1.369,0,0,1-1.035.46,1.336,1.336,0,0,1-.958-.345,1.388,1.388,0,0,1-.383-1.035V85h.537v2.3a.923.923,0,1,0,1.84,0V85h.537v3.719Z" transform="translate(-408.706 -83.351)"/>
      <path id="Path_438" data-name="Path 438" d="M429.218,86.931a.914.914,0,0,1-.958-1V83.672h-.46V83.25h.46V82.1h.537v1.15h.805v.422H428.8v2.262c0,.345.153.537.5.537h.268v.46Z" transform="translate(-414.995 -81.563)"/>
      <path id="Path_439" data-name="Path 439" d="M435.833,88.857a2.148,2.148,0,0,1-1.534-.537l.345-.345a1.531,1.531,0,0,0,1.15.422c.613,0,1-.23,1-.652,0-.307-.192-.5-.613-.537l-.613-.038c-.728-.077-1.112-.383-1.112-1,0-.69.575-1.073,1.38-1.073a2.141,2.141,0,0,1,1.342.383l-.345.345a1.708,1.708,0,0,0-1-.307c-.537,0-.843.23-.843.613,0,.307.192.5.652.537l.613.038c.652.077,1.073.307,1.073,1C437.367,88.435,436.754,88.857,435.833,88.857Z" transform="translate(-419.003 -83.413)"/>
      <path id="Path_440" data-name="Path 440" d="M446.148,88.857a1.661,1.661,0,0,1-1.649-1.879c0-1.265.69-1.879,1.649-1.879a1.578,1.578,0,0,1,1.227.537l-.383.345a1.054,1.054,0,0,0-1.687,0,1.483,1.483,0,0,0-.23,1,1.74,1.74,0,0,0,.23,1,1.054,1.054,0,0,0,1.687,0l.383.345A1.578,1.578,0,0,1,446.148,88.857Z" transform="translate(-425.293 -83.413)"/>
      <path id="Path_441" data-name="Path 441" d="M456.977,86.067v-2.3a.923.923,0,1,0-1.84,0v2.3H454.6V80.7h.537v2.07a1.312,1.312,0,0,1,1.035-.46,1.259,1.259,0,0,1,1.342,1.38v2.377Z" transform="translate(-431.521 -80.7)"/>
      <path id="Path_442" data-name="Path 442" d="M465.4,89.3v-.5h2.07v.5Z" transform="translate(-438.18 -85.695)"/>
      <path id="Path_443" data-name="Path 443" d="M476.293,83.944h-1.419v2.224H474.3V80.8h1.994a1.574,1.574,0,1,1,0,3.144Zm-.038-2.645h-1.38v2.147h1.38a1.027,1.027,0,0,0,1.15-1.073A1.046,1.046,0,0,0,476.255,81.3Z" transform="translate(-443.668 -80.762)"/>
      <path id="Path_444" data-name="Path 444" d="M488.207,88.374a1.577,1.577,0,0,1-2.147,0,1.966,1.966,0,0,1-.46-1.457,2.059,2.059,0,0,1,.46-1.5,1.577,1.577,0,0,1,2.147,0,2.007,2.007,0,0,1,.46,1.5A1.966,1.966,0,0,1,488.207,88.374Zm-.383-2.645a.972.972,0,0,0-1.342,0,2.31,2.31,0,0,0,0,2.3.9.9,0,0,0,.652.268,1.194,1.194,0,0,0,.69-.268,2.31,2.31,0,0,0,0-2.3Z" transform="translate(-450.636 -83.351)"/>
      <path id="Path_445" data-name="Path 445" d="M497.458,86.129a.9.9,0,0,1-.958-1V80.8h.537v4.37c0,.345.115.537.5.537h.307v.46h-.383Z" transform="translate(-457.357 -80.762)"/>
      <path id="Path_446" data-name="Path 446" d="M504.777,88.657V86.4a.923.923,0,1,0-1.84,0v2.262H502.4V84.938h.537v.422a1.313,1.313,0,0,1,1.035-.46,1.336,1.336,0,0,1,.958.345,1.388,1.388,0,0,1,.383,1.035v2.377Z" transform="translate(-460.996 -83.29)"/>
      <path id="Path_447" data-name="Path 447" d="M513.4,81.313V80.7h.613v.613Zm.038,4.754V82.349h.537v3.719Z" transform="translate(-467.779 -80.7)"/>
      <path id="Path_448" data-name="Path 448" d="M519.033,88.857a2.148,2.148,0,0,1-1.533-.537l.345-.345A1.531,1.531,0,0,0,519,88.4c.613,0,1-.23,1-.652,0-.307-.192-.5-.613-.537l-.613-.038c-.729-.077-1.112-.383-1.112-1,0-.69.575-1.073,1.38-1.073a2.141,2.141,0,0,1,1.342.383l-.345.345a1.709,1.709,0,0,0-1-.307c-.537,0-.843.23-.843.613,0,.307.192.5.652.537l.614.038c.652.077,1.073.307,1.073,1C520.529,88.435,519.915,88.857,519.033,88.857Z" transform="translate(-470.307 -83.413)"/>
      <path id="Path_449" data-name="Path 449" d="M529.249,88.857a1.661,1.661,0,0,1-1.649-1.879c0-1.265.69-1.879,1.649-1.879a1.578,1.578,0,0,1,1.227.537l-.383.345a1.054,1.054,0,0,0-1.687,0,1.483,1.483,0,0,0-.23,1,1.741,1.741,0,0,0,.23,1,1.054,1.054,0,0,0,1.687,0l.383.345A1.526,1.526,0,0,1,529.249,88.857Z" transform="translate(-476.535 -83.413)"/>
      <path id="Path_450" data-name="Path 450" d="M540.177,86.067v-2.3a.923.923,0,1,0-1.84,0v2.3H537.8V80.7h.537v2.07a1.313,1.313,0,0,1,1.035-.46,1.259,1.259,0,0,1,1.342,1.38v2.377Z" transform="translate(-482.824 -80.7)"/>
      <path id="Path_451" data-name="Path 451" d="M548.837,87.032c0,.805.383,1.265,1.073,1.265a1.131,1.131,0,0,0,.958-.422l.383.307a1.685,1.685,0,0,1-1.342.575c-1,0-1.61-.575-1.61-1.879,0-1.188.575-1.879,1.533-1.879s1.534.69,1.534,1.8v.23ZM550.677,86a.964.964,0,0,0-1.764,0,1.345,1.345,0,0,0-.115.613h1.955A.788.788,0,0,0,550.677,86Z" transform="translate(-489.299 -83.351)"/>
      <path id="Path_452" data-name="Path 452" d="M559.833,88.857a2.148,2.148,0,0,1-1.533-.537l.345-.345a1.531,1.531,0,0,0,1.15.422c.613,0,1-.23,1-.652,0-.307-.192-.5-.613-.537l-.613-.038c-.728-.077-1.112-.383-1.112-1,0-.69.575-1.073,1.38-1.073a2.141,2.141,0,0,1,1.342.383l-.345.345a1.709,1.709,0,0,0-1-.307c-.537,0-.843.23-.843.613,0,.307.192.5.652.537l.613.038c.652.077,1.073.307,1.073,1C561.329,88.435,560.715,88.857,559.833,88.857Z" transform="translate(-495.465 -83.413)"/>
      <path id="Path_453" data-name="Path 453" d="M573.827,86.206a1.619,1.619,0,0,1-1.227-.5l.383-.383a1.026,1.026,0,0,0,.843.345,1.081,1.081,0,0,0,1.112-1.227V80.8h.575v3.719A1.631,1.631,0,0,1,573.827,86.206Z" transform="translate(-504.283 -80.762)"/>
      <path id="Path_454" data-name="Path 454" d="M585.977,88.719V88.3a1.313,1.313,0,0,1-1.035.46,1.336,1.336,0,0,1-.958-.345,1.387,1.387,0,0,1-.383-1.035V85h.537v2.3a.923.923,0,1,0,1.84,0V85h.537v3.719Z" transform="translate(-511.066 -83.351)"/>
      <path id="Path_455" data-name="Path 455" d="M595.68,90.506a1.648,1.648,0,0,1-1.265-.5l.345-.345a1.182,1.182,0,0,0,.882.383c.728,0,1.035-.5,1.035-1.15V88.32a1.228,1.228,0,0,1-1.035.5,1.242,1.242,0,0,1-.882-.345,2.1,2.1,0,0,1-.46-1.533,2,2,0,0,1,.46-1.534,1.328,1.328,0,0,1,.92-.307,1.1,1.1,0,0,1,1.035.5v-.422h.537V89.01A1.515,1.515,0,0,1,595.68,90.506Zm.077-4.984c-.8,0-.92.69-.92,1.38s.115,1.38.92,1.38.92-.69.92-1.38S596.562,85.522,595.757,85.522Z" transform="translate(-517.664 -83.413)"/>
      <path id="Path_456" data-name="Path 456" d="M605.437,87.032c0,.805.383,1.265,1.073,1.265a1.131,1.131,0,0,0,.958-.422l.383.307a1.686,1.686,0,0,1-1.342.575c-1,0-1.61-.575-1.61-1.879,0-1.188.575-1.879,1.534-1.879s1.533.69,1.533,1.8v.23ZM607.277,86a.929.929,0,0,0-.882-.575.968.968,0,0,0-.882.575,1.344,1.344,0,0,0-.115.613h1.955A1,1,0,0,0,607.277,86Z" transform="translate(-524.2 -83.351)"/>
      <path id="Path_457" data-name="Path 457" d="M618.177,88.657V86.4a.923.923,0,1,0-1.84,0v2.262H615.8V84.938h.537v.422a1.313,1.313,0,0,1,1.035-.46,1.336,1.336,0,0,1,.958.345,1.387,1.387,0,0,1,.383,1.035v2.377Z" transform="translate(-530.921 -83.29)"/>
      <path id="Path_458" data-name="Path 458" d="M628.653,86.129v-.46a1.251,1.251,0,0,1-1.073.5,1.4,1.4,0,0,1-.92-.307,2.915,2.915,0,0,1,0-3.144,1.328,1.328,0,0,1,.92-.307,1.151,1.151,0,0,1,1.035.46V80.8h.537v5.367h-.5Zm-.92-3.259c-.805,0-.92.69-.92,1.418s.115,1.418.92,1.418.92-.69.92-1.418S628.539,82.87,627.733,82.87Z" transform="translate(-537.334 -80.762)"/>
      <path id="Path_459" data-name="Path 459" d="M640.1,88.719h-.5l-.958-2.875-.958,2.875h-.5L636,85h.575l.844,2.99.958-2.99h.46l1,2.99.844-2.99h.575Z" transform="translate(-543.377 -83.351)"/>
      <path id="Path_460" data-name="Path 460" d="M651.637,87.032c0,.805.383,1.265,1.073,1.265a1.131,1.131,0,0,0,.958-.422l.383.307a1.686,1.686,0,0,1-1.342.575c-1,0-1.61-.575-1.61-1.879,0-1.188.575-1.879,1.534-1.879s1.534.69,1.534,1.8v.23ZM653.515,86a.929.929,0,0,0-.882-.575.968.968,0,0,0-.882.575,1.343,1.343,0,0,0-.115.613h1.955A1.4,1.4,0,0,0,653.515,86Z" transform="translate(-552.688 -83.351)"/>
      <path id="Path_461" data-name="Path 461" d="M664.17,85.667a.79.79,0,0,0-.652-.268.9.9,0,0,0-.882,1v2.262H662.1V84.938h.537v.46a1.238,1.238,0,0,1,1.035-.5,1.127,1.127,0,0,1,.882.345Z" transform="translate(-559.471 -83.29)"/>
      <path id="Path_462" data-name="Path 462" d="M672.754,86.129l-1.189-1.879-.728.843v1.073H670.3V80.8h.537v3.565l1.687-1.917h.69l-1.265,1.418,1.457,2.3h-.652Z" transform="translate(-564.527 -80.762)"/>
      <path id="Path_463" data-name="Path 463" d="M396.394,110.344h-1.418v2.224H394.4V107.2h1.994a1.511,1.511,0,0,1,1.648,1.572A1.53,1.53,0,0,1,396.394,110.344Zm-.077-2.645h-1.38v2.147h1.38a1.027,1.027,0,0,0,1.15-1.073A1.01,1.01,0,0,0,396.317,107.7Z" transform="translate(-394.4 -97.041)"/>
      <path id="Path_464" data-name="Path 464" d="M408.307,114.735a1.577,1.577,0,0,1-2.147,0,1.966,1.966,0,0,1-.46-1.457,1.916,1.916,0,0,1,.46-1.457,1.577,1.577,0,0,1,2.147,0,1.966,1.966,0,0,1,.46,1.457A1.915,1.915,0,0,1,408.307,114.735Zm-.383-2.607a.972.972,0,0,0-1.342,0,2.309,2.309,0,0,0,0,2.3.9.9,0,0,0,.652.268,1.1,1.1,0,0,0,.69-.268,2.31,2.31,0,0,0,0-2.3Z" transform="translate(-401.368 -99.63)"/>
      <path id="Path_465" data-name="Path 465" d="M417.558,112.467a.9.9,0,0,1-.958-1V107.1h.537v4.332c0,.345.115.537.5.537h.307v.46h-.383Z" transform="translate(-408.089 -96.979)"/>
      <path id="Path_466" data-name="Path 466" d="M423.133,115.157a2.148,2.148,0,0,1-1.534-.537l.345-.345a1.531,1.531,0,0,0,1.15.422c.613,0,1-.23,1-.652,0-.307-.192-.5-.613-.537l-.613-.038c-.728-.077-1.112-.383-1.112-1,0-.69.575-1.073,1.38-1.073a2.141,2.141,0,0,1,1.342.383l-.345.345a1.709,1.709,0,0,0-1-.307c-.537,0-.843.23-.843.613,0,.307.192.5.652.537l.613.038c.652.077,1.073.307,1.073,1C424.629,114.774,424.015,115.157,423.133,115.157Z" transform="translate(-411.172 -99.63)"/>
      <path id="Path_467" data-name="Path 467" d="M434.654,112.529l-1.188-1.879-.728.843v1.073H432.2V107.2h.537v3.565l1.687-1.917h.69l-1.265,1.418,1.457,2.3h-.652Z" transform="translate(-417.708 -97.041)"/>
      <path id="Path_468" data-name="Path 468" d="M444.407,114.735a1.577,1.577,0,0,1-2.147,0,1.966,1.966,0,0,1-.46-1.457,1.915,1.915,0,0,1,.46-1.457,1.577,1.577,0,0,1,2.147,0,1.966,1.966,0,0,1,.46,1.457A1.915,1.915,0,0,1,444.407,114.735Zm-.383-2.607a.972.972,0,0,0-1.342,0,2.309,2.309,0,0,0,0,2.3.9.9,0,0,0,.652.268,1.1,1.1,0,0,0,.69-.268,2.31,2.31,0,0,0,0-2.3Z" transform="translate(-423.628 -99.63)"/>
      <path id="Path_469" data-name="Path 469" d="M452.5,115.7v-.5h2.07v.5Z" transform="translate(-430.226 -101.974)"/>
      <path id="Path_470" data-name="Path 470" d="M464.812,112.467l-2.837-4.294v4.294H461.4V107.1h.537l2.837,4.294V107.1h.575v5.367Z" transform="translate(-435.714 -96.979)"/>
      <path id="Path_471" data-name="Path 471" d="M475.5,107.713V107.1h.613v.613Zm0,4.754v-3.719h.537v3.719Z" transform="translate(-444.408 -96.979)"/>
      <path id="Path_472" data-name="Path 472" d="M480.537,113.432c0,.805.383,1.265,1.073,1.265a1.131,1.131,0,0,0,.958-.422l.383.307a1.685,1.685,0,0,1-1.342.575c-1,0-1.61-.575-1.61-1.879,0-1.188.575-1.879,1.533-1.879s1.533.69,1.533,1.8v.23Zm1.84-1.035a.929.929,0,0,0-.882-.575.969.969,0,0,0-.882.575,1.345,1.345,0,0,0-.115.613h1.955A1,1,0,0,0,482.377,112.4Z" transform="translate(-447.183 -99.63)"/>
      <path id="Path_473" data-name="Path 473" d="M495.654,115v-2.3a.922.922,0,1,0-1.84-.077v2.339h-.537v-2.3a.923.923,0,1,0-1.84,0v2.3H490.9v-3.719h.537v.422a1.369,1.369,0,0,1,1.035-.46,1.3,1.3,0,0,1,1.15.613,1.354,1.354,0,0,1,1.227-.613,1.336,1.336,0,0,1,.958.345,1.387,1.387,0,0,1,.383,1.035v2.377h-.537Z" transform="translate(-453.904 -99.507)"/>
      <path id="Path_474" data-name="Path 474" d="M508.1,107.713V107.1h.613v.613Zm.038,4.754v-3.719h.537v3.719Z" transform="translate(-464.51 -96.979)"/>
      <path id="Path_475" data-name="Path 475" d="M513.137,113.432c0,.805.383,1.265,1.073,1.265a1.131,1.131,0,0,0,.958-.422l.383.307a1.685,1.685,0,0,1-1.342.575c-1,0-1.61-.575-1.61-1.879,0-1.188.575-1.879,1.533-1.879s1.534.69,1.534,1.8v.23Zm1.84-1.035a.929.929,0,0,0-.882-.575.969.969,0,0,0-.882.575,1.345,1.345,0,0,0-.115.613h1.955A1,1,0,0,0,514.977,112.4Z" transform="translate(-467.285 -99.63)"/>
      <path id="Path_476" data-name="Path 476" d="M524.648,115.157A1.661,1.661,0,0,1,523,113.279c0-1.265.69-1.879,1.648-1.879a1.578,1.578,0,0,1,1.227.537l-.383.345a1.054,1.054,0,0,0-1.687,0,1.483,1.483,0,0,0-.23,1,1.739,1.739,0,0,0,.23,1,1.054,1.054,0,0,0,1.687,0l.383.345A1.462,1.462,0,0,1,524.648,115.157Z" transform="translate(-473.698 -99.63)"/>
      <path id="Path_477" data-name="Path 477" d="M535.553,112.529l-1.188-1.879-.728.843v1.073H533.1V107.2h.537v3.565l1.687-1.917h.69l-1.265,1.418,1.457,2.3h-.652Z" transform="translate(-479.926 -97.041)"/>
      <path id="Path_478" data-name="Path 478" d="M545.377,115.057v-.345a1.289,1.289,0,0,1-1.073.383,1.347,1.347,0,0,1-1.035-.345,1.044,1.044,0,0,1-.268-.767c0-.652.46-1.073,1.265-1.073h1.112v-.345c0-.537-.268-.805-.958-.805a.942.942,0,0,0-.92.422l-.383-.345a1.436,1.436,0,0,1,1.3-.537c1,0,1.5.422,1.5,1.227v2.53Zm0-1.687h-1.035c-.575,0-.844.23-.844.652s.268.652.844.652a1.28,1.28,0,0,0,.843-.23.942.942,0,0,0,.192-.652Z" transform="translate(-486.031 -99.569)"/>
      <path id="Path_479" data-name="Path 479" d="M562.23,112.467h-.537l-1.188-4.294-1.188,4.294h-.537L557.4,107.1h.613l1.035,4.332,1.188-4.332h.5l1.189,4.332,1.035-4.332h.613Z" transform="translate(-494.91 -96.979)"/>
      <path id="Path_480" data-name="Path 480" d="M575.433,115.157a2.148,2.148,0,0,1-1.533-.537l.345-.345a1.531,1.531,0,0,0,1.15.422c.613,0,1-.23,1-.652,0-.307-.192-.5-.613-.537l-.613-.038c-.728-.077-1.112-.383-1.112-1,0-.69.575-1.073,1.38-1.073a2.141,2.141,0,0,1,1.342.383l-.345.345a1.709,1.709,0,0,0-1-.307c-.537,0-.843.23-.843.613,0,.307.192.5.652.537l.613.038c.652.077,1.073.307,1.073,1C576.967,114.774,576.354,115.157,575.433,115.157Z" transform="translate(-505.084 -99.63)"/>
      <path id="Path_481" data-name="Path 481" d="M587.092,114.727a1.328,1.328,0,0,1-.92.307,1.185,1.185,0,0,1-1.035-.5v2.109H584.6v-5.367h.537v.422a1.228,1.228,0,0,1,1.035-.5,1.4,1.4,0,0,1,.92.307,2.2,2.2,0,0,1,.46,1.572A2.286,2.286,0,0,1,587.092,114.727Zm-1-2.99c-.8,0-.92.69-.92,1.419s.115,1.418.92,1.418.92-.69.92-1.418S586.9,111.737,586.095,111.737Z" transform="translate(-511.682 -99.507)"/>
      <path id="Path_482" data-name="Path 482" d="M597.307,111.652a1.577,1.577,0,0,1-2.147,0,1.966,1.966,0,0,1-.46-1.457,1.915,1.915,0,0,1,.46-1.457,1.577,1.577,0,0,1,2.147,0,1.966,1.966,0,0,1,.46,1.457A1.915,1.915,0,0,1,597.307,111.652Zm-.383-2.607a.972.972,0,0,0-1.342,0,2.31,2.31,0,0,0,0,2.3.9.9,0,0,0,.652.268,1.194,1.194,0,0,0,.69-.268,2.31,2.31,0,0,0,0-2.3Zm-.537-1.5h-.5l.652-1.15h.652Z" transform="translate(-517.91 -96.547)"/>
      <path id="Path_483" data-name="Path 483" d="M606.118,112.529a.9.9,0,0,1-.958-1V109.96l-.46.307v-.46l.46-.307v-2.3h.537v1.994l.613-.383v.46l-.613.383v1.879c0,.345.115.537.5.537h.307v.46Z" transform="translate(-524.076 -97.041)"/>
      <path id="Path_484" data-name="Path 484" d="M614.392,114.727a1.328,1.328,0,0,1-.92.307,1.185,1.185,0,0,1-1.035-.5v2.109H611.9v-5.367h.537v.422a1.228,1.228,0,0,1,1.035-.5,1.4,1.4,0,0,1,.92.307,2.2,2.2,0,0,1,.46,1.572A2.285,2.285,0,0,1,614.392,114.727Zm-1-2.99c-.8,0-.92.69-.92,1.419s.115,1.418.92,1.418.92-.69.92-1.418S614.2,111.737,613.4,111.737Z" transform="translate(-528.516 -99.507)"/>
      <path id="Path_485" data-name="Path 485" d="M624.67,112.067a.79.79,0,0,0-.652-.268.9.9,0,0,0-.882,1v2.262H622.6v-3.719h.537v.46a1.238,1.238,0,0,1,1.035-.5,1.127,1.127,0,0,1,.882.345Z" transform="translate(-535.114 -99.569)"/>
      <path id="Path_486" data-name="Path 486" d="M632.377,115.057v-.345a1.289,1.289,0,0,1-1.074.383,1.348,1.348,0,0,1-1.035-.345,1.045,1.045,0,0,1-.268-.767c0-.652.46-1.073,1.265-1.073h1.112v-.345c0-.537-.268-.805-.958-.805a.942.942,0,0,0-.92.422l-.383-.345a1.436,1.436,0,0,1,1.3-.537c1,0,1.5.422,1.5,1.227v2.53Zm0-1.687h-1.035c-.575,0-.843.23-.843.652s.268.652.843.652a1.28,1.28,0,0,0,.843-.23.942.942,0,0,0,.192-.652Z" transform="translate(-539.677 -99.569)"/>
      <path id="Path_487" data-name="Path 487" d="M642.148,115.157a1.661,1.661,0,0,1-1.648-1.879c0-1.265.69-1.879,1.648-1.879a1.578,1.578,0,0,1,1.227.537l-.383.345a1.054,1.054,0,0,0-1.687,0,1.483,1.483,0,0,0-.23,1,1.739,1.739,0,0,0,.23,1,1.054,1.054,0,0,0,1.687,0l.383.345A1.508,1.508,0,0,1,642.148,115.157Z" transform="translate(-546.152 -99.63)"/>
      <path id="Path_488" data-name="Path 488" d="M652.077,115.057v-.345A1.289,1.289,0,0,1,651,115.1a1.348,1.348,0,0,1-1.035-.345,1.044,1.044,0,0,1-.268-.767c0-.652.46-1.073,1.265-1.073h1.112v-.345c0-.537-.268-.805-.958-.805a.942.942,0,0,0-.92.422l-.383-.345a1.435,1.435,0,0,1,1.3-.537c1,0,1.5.422,1.5,1.227v2.53Zm0-1.687h-1.035c-.575,0-.844.23-.844.652s.268.652.844.652a1.28,1.28,0,0,0,.843-.23.942.942,0,0,0,.192-.652Z" transform="translate(-551.825 -99.569)"/>
      <path id="Path_489" data-name="Path 489" d="M669.825,112.467V108.4l-1.457,3.22h-.5l-1.5-3.22v4.064H665.8V107.1h.575l1.763,3.8,1.687-3.8h.575v5.367Z" transform="translate(-561.752 -96.979)"/>
      <path id="Path_490" data-name="Path 490" d="M682.018,112.529a.9.9,0,0,1-.958-1V109.96l-.46.307v-.46l.46-.307v-2.3h.537v1.994l.613-.383v.46l-.613.383v1.879c0,.345.115.537.5.537h.307v.46Z" transform="translate(-570.878 -97.041)"/>
      <path id="Path_491" data-name="Path 491" d="M689.807,114.735a1.577,1.577,0,0,1-2.147,0,1.966,1.966,0,0,1-.46-1.457,1.915,1.915,0,0,1,.46-1.457,1.577,1.577,0,0,1,2.147,0,1.966,1.966,0,0,1,.46,1.457A1.916,1.916,0,0,1,689.807,114.735Zm-.383-2.607a.972.972,0,0,0-1.342,0,2.311,2.311,0,0,0,0,2.3.9.9,0,0,0,.652.268,1.194,1.194,0,0,0,.69-.268,2.31,2.31,0,0,0,0-2.3Z" transform="translate(-574.948 -99.63)"/>
      <path id="Path_492" data-name="Path 492" d="M700.115,112.591v-.422a1.229,1.229,0,0,1-1.035.5,1.4,1.4,0,0,1-.92-.307,2.916,2.916,0,0,1,0-3.144,1.328,1.328,0,0,1,.92-.307,1.151,1.151,0,0,1,1.035.46V107.3h.537v5.367h-.537Zm-.92-3.259c-.8,0-.92.69-.92,1.418s.115,1.418.92,1.418.92-.69.92-1.418S700,109.332,699.2,109.332Z" transform="translate(-581.423 -97.102)"/>
      <path id="Path_493" data-name="Path 493" d="M708.1,115.119v-.46l2.07-2.76h-1.955v-.5h2.569v.46l-2.07,2.76h2.07v.5Z" transform="translate(-587.836 -99.63)"/>
      <path id="Path_494" data-name="Path 494" d="M717.8,107.713V107.1h.613v.613Zm.038,4.754v-3.719h.537v3.719Z" transform="translate(-593.817 -96.979)"/>
      <path id="Path_495" data-name="Path 495" d="M722.937,113.432c0,.805.383,1.265,1.073,1.265a1.131,1.131,0,0,0,.958-.422l.383.307a1.686,1.686,0,0,1-1.342.575c-1,0-1.61-.575-1.61-1.879,0-1.188.575-1.879,1.534-1.879s1.533.69,1.533,1.8v.23Zm1.84-1.035a.929.929,0,0,0-.882-.575.968.968,0,0,0-.882.575,1.342,1.342,0,0,0-.115.613h1.955A1.4,1.4,0,0,0,724.777,112.4Z" transform="translate(-596.653 -99.63)"/>
      <path id="Path_496" data-name="Path 496" d="M732.5,112.776v-.46l2.07-2.76h-1.955v-.5h2.569v.46l-2.07,2.76h2.07v.5Zm1.073-5.176h.575v.575h-.575Z" transform="translate(-602.881 -97.287)"/>
      <path id="Path_497" data-name="Path 497" d="M742.233,116.039a.891.891,0,0,1-.268.422,1.012,1.012,0,0,1-.728.268h-.23v-.5h.153c.384,0,.5-.115.614-.46l.268-.728L740.7,111.4h.575l1.035,2.99,1-2.99h.575Z" transform="translate(-607.938 -99.63)"/>
    </g>
    <g id="Group_279" data-name="Group 279" transform="translate(-21628.578 -8724.597)">
      <path id="Path_498" data-name="Path 498" d="M113,75.488l.5-.92.882-1.188,1.84-1.649,3.182-2.262,3.489-1.61,2.645-.537,1.418-.153,2.76-.268,2.3.192,2.377.69,1.879,1.035,1.188.307,2.147,1.533,2.339,1.955,1.955,1.725,2.185,1.61,2.262,1.112,3.335.69h2.3l3.22-.652,2.684-1.15,1.8-1.265,1.38-.767.23-.345,1.073.652-.613.882L161.267,77.1l-1.534,1.342L157.165,79.9l-1.3.5-1.84.805-1.649.307-2.109.23h-2.07l-2.76-.537-1.112-.69-1.3-.652-1.265-.805-1.073-.805-1.112-.69-.767-.652-.882-.882-.92-.767-1.188-.843-.92-.882-1.419-.92-.843-.46-1.035-.422-1.188-.383-1.073-.23-1.035-.153-1.227-.115-1.61.23-1.073.077-1.38.192h-.843l-.843.192-1.955.69-1.112.383-1.035.46-1.15.652-.92.613-1.112.728L113,75.833Z" transform="translate(-83.442 -54.945)" fill="#fff"/>
      <g id="Group_278" data-name="Group 278">
        <path id="Path_499" data-name="Path 499" d="M84.167,89.775a35.611,35.611,0,0,0,4.14-2.875l.422.345.5.422a64.5,64.5,0,0,1-8.089,6.1A46.982,46.982,0,0,1,68.257,99.59c-11.846,3.489-19.629,3.91-32.357,3.335l2.99-3.987c12.766.575,21.507-.038,32.51-3.527a53.508,53.508,0,0,0,12.766-5.636" transform="translate(-35.9 -67.277)"/>
        <path id="Path_500" data-name="Path 500" d="M230.556,133V130.4a1.534,1.534,0,0,0-.422-1.112,1.485,1.485,0,0,0-1.035-.383,1.526,1.526,0,0,0-1.342.69,1.34,1.34,0,0,0-1.227-.69,1.458,1.458,0,0,0-1.15.5v-.46h-.613v4.025h.613v-2.492a1,1,0,1,1,1.994,0v2.492h.575v-2.492a.926.926,0,0,1,1-1,.95.95,0,0,1,1,1.073v2.492h.613Zm-6.632-4.025h-.652l-.92,3.259-1.073-3.259h-.5l-1.073,3.259-.92-3.259h-.652l1.3,4.025h.537l1.073-3.144L222.083,133h.537ZM217.367,133V130.4a1.393,1.393,0,0,0-.422-1.112,1.558,1.558,0,0,0-1.035-.383,1.331,1.331,0,0,0-1.112.5v-.46h-.575v4.025h.575v-2.492a1,1,0,1,1,1.994,0v2.492h.575Zm-5.06-1.994c0,.767-.115,1.533-1,1.533s-1.035-.767-1.035-1.533c0-.805.153-1.534,1.035-1.534.882-.038,1,.728,1,1.534m.613,0a2.429,2.429,0,0,0-.5-1.725,1.37,1.37,0,0,0-1-.345,1.238,1.238,0,0,0-1.15.537v-.46H209.7v5.866h.575v-2.3a1.325,1.325,0,0,0,1.15.537,1.557,1.557,0,0,0,1-.345,2.585,2.585,0,0,0,.5-1.764" transform="translate(-143.07 -93.176)"/>
        <path id="Path_501" data-name="Path 501" d="M252.208,108.1h-.652l-.92,3.259-1.073-3.259h-.5l-1.073,3.259-.92-3.259h-.652l1.265,4.025h.537l1.035-3.144,1.073,3.144h.537Zm-6.594-1.8h-.652v.652h.652Zm-.038,6.594V108.14H245v4.715c0,.383-.115.613-.537.613h-.307v.5h.422a.948.948,0,0,0,1-1.073m-2.454-2.76c0,.805-.115,1.533-1,1.533s-1-.767-1-1.533.153-1.533,1-1.533c.882,0,1,.728,1,1.533m.613,0a2.429,2.429,0,0,0-.5-1.725,1.37,1.37,0,0,0-1-.345,1.325,1.325,0,0,0-1.15.537v-.5h-.575v5.866h.575v-2.3a1.325,1.325,0,0,0,1.15.537,1.556,1.556,0,0,0,1-.345,2.626,2.626,0,0,0,.5-1.725m-5.29,0c0,.805-.153,1.533-1,1.533-.882,0-1.035-.767-1.035-1.533s.153-1.533,1.035-1.533c.843,0,1,.728,1,1.533m.575,2.032V106.3h-.575v2.3a1.325,1.325,0,0,0-1.15-.537,1.556,1.556,0,0,0-1,.345,3.235,3.235,0,0,0,0,3.45,1.37,1.37,0,0,0,1,.345,1.285,1.285,0,0,0,1.15-.537v.5Z" transform="translate(-159.164 -79.24)"/>
        <path id="Path_502" data-name="Path 502" d="M259.991,49.051a39.763,39.763,0,0,0-4.447,3.144l-.843-.69a57,57,0,0,1,8.281-6.479,44.643,44.643,0,0,1,12.766-5.6c12.268-3.45,19.744-4.1,32.472-3.527l-2.99,3.987c-12.766-.575-20.2.077-32.51,3.527a44.991,44.991,0,0,0-12.728,5.636" transform="translate(-170.818 -35.716)" fill="#da251d"/>
        <path id="Path_503" data-name="Path 503" d="M255.2,79.3c-4.1,0-7.207-2.224-9.891-4.562l-.613-.575,3.834-3.182.383.307c2.53,2.07,5.252,3.8,9.048,3.8,6.4,0,11.578-1.8,15.488-5.9.537-.575.843-.958,1.572-1.879l-2.99,4.025C267.971,76.731,262.719,79.3,255.2,79.3Z" transform="translate(-164.652 -55.192)" fill="#fff500"/>
        <path id="Path_504" data-name="Path 504" d="M195.555,63.087a16.605,16.605,0,0,0-10.734,3.719l-.5-.46L183.9,66c4.294-3.8,8.013-6.9,14.683-6.9,5.406,0,8.933,3.757,12.46,6.824l-3.834,3.182c-3.22-2.8-6.709-6.019-11.655-6.019" transform="translate(-127.161 -50.135)" fill="#da251d"/>
      </g>
      <path id="Path_505" data-name="Path 505" d="M161.484,73.844l-.038.038c-4.14,3.68-8.051,7.131-14.453,7.131-4.715,0-7.9-2.76-11-5.482-3.067-2.684-6.249-5.444-10.926-5.482h-.153c-5.674,0-10.2,1.418-13.8,4.37l.115-.153c4.217-5.214,9.124-7.629,16.408-7.629,4.677,0,8.051,2.607,11.195,5.406,3.067,2.722,6.249,5.521,11.156,5.521,4.677,0,8.051-1.994,11.041-4.14l-.422-.383c-2.875,2.109-6.134,3.987-10.581,3.987-4.677,0-7.629-2.607-10.773-5.406C136.181,68.9,132.539,66.1,127.67,66.1c-7.361,0-12.575,2.569-16.868,7.859a14.592,14.592,0,0,0-1.3,2.07c-.268.5-.5,1-.5,1s.69-.652,1.112-1c.69-.575.882-.728,1.533-1.227,3.489-2.8,7.9-4.179,13.341-4.179h.153c4.447,0,7.4,2.607,10.543,5.329,3.182,2.76,6.441,5.6,11.348,5.6,6.594,0,10.581-3.527,14.8-7.246l.115-.077Z" transform="translate(-80.975 -54.452)" fill="#c8c8c8"/>
    </g>
  </g>
</svg>
