<?xml version="1.0" encoding="utf-8"?>
<!-- Generator: Adobe Illustrator 14.0.0, SVG Export Plug-In . SVG Version: 6.00 Build 43363)  -->
<!DOCTYPE svg PUBLIC "-//W3C//DTD SVG 1.1//EN" "http://www.w3.org/Graphics/SVG/1.1/DTD/svg11.dtd">
<svg version="1.1" id="Warstwa_1" xmlns="http://www.w3.org/2000/svg" xmlns:xlink="http://www.w3.org/1999/xlink" x="0px" y="0px"
	 width="852.033px" height="284.82px" viewBox="0 80 852.033 164.82" enable-background="new 0 0 852.033 284.82"
	 xml:space="preserve">
<polygon fill="#F9B521" points="0,219.746 21.724,272.508 26.995,272.508 5.063,219.746 "/>
<polygon fill="#F9B521" points="291.476,82.034 238.722,134.791 325.804,134.787 241.84,218.746 179.934,218.746 201.869,271.508 
	263.567,271.508 263.567,271.383 263.695,271.508 363.114,172.099 363.114,259.182 415.868,206.43 415.882,82.029 "/>
<polygon fill="#F9B521" points="71.269,271.508 99.704,271.508 77.771,218.746 49.334,218.746 "/>
<polygon fill="#F9B521" points="34.726,218.746 20.966,218.746 42.899,271.508 56.657,271.508 "/>
<polygon fill="#F9B521" points="115.968,271.508 139.674,271.508 117.739,218.746 94.037,218.746 "/>
<polygon fill="#F9B521" points="161.24,271.508 189.008,271.508 167.072,218.746 139.308,218.746 "/>
<g>
	<path fill="#FFFFFF" d="M442.557,203.321l56.651-73.725c5.433-6.726,10.606-12.676,16.297-19.401v-0.518H447.73V91.312h95.453
		l-0.258,14.228l-55.876,72.689c-5.174,6.984-10.347,13.193-16.038,19.66v0.517h73.207v18.108H442.557V203.321z"/>
	<path fill="#FFFFFF" d="M564.392,193.232c6.726,4.397,18.625,9.054,30.008,9.054c16.556,0,24.315-8.278,24.315-18.625
		c0-10.865-6.467-16.814-23.281-23.023c-22.505-8.019-33.111-20.436-33.111-35.439c0-20.177,16.297-36.733,43.2-36.733
		c12.676,0,23.799,3.622,30.783,7.761l-5.691,16.556c-4.915-3.104-13.969-7.243-25.609-7.243c-13.451,0-20.953,7.76-20.953,17.073
		c0,10.348,7.502,15.004,23.799,21.212c21.729,8.278,32.853,19.143,32.853,37.768c0,21.987-17.073,37.509-46.821,37.509
		c-13.71,0-26.386-3.363-35.181-8.537L564.392,193.232z"/>
	<path fill="#FFFFFF" d="M697.351,55.354v35.957h32.595v17.332h-32.595v67.516c0,15.521,4.398,24.316,17.073,24.316
		c5.95,0,10.348-0.776,13.193-1.553l1.034,17.073c-4.397,1.812-11.382,3.104-20.177,3.104c-10.606,0-19.143-3.363-24.575-9.571
		c-6.467-6.726-8.795-17.849-8.795-32.594v-68.292h-19.401V91.312h19.401V61.304L697.351,55.354z"/>
	<path fill="#FFFFFF" d="M780.901,56.131c0.259,7.76-5.432,13.969-14.486,13.969c-8.019,0-13.71-6.208-13.71-13.969
		c0-8.02,5.95-14.228,14.228-14.228C775.47,41.903,780.901,48.111,780.901,56.131z M755.551,216.514V91.312h22.764v125.202H755.551z
		"/>
</g>
<g>
	<path fill="#FFFFFF" d="M473.233,271.513c-1.854,0.665-5.514,1.758-9.839,1.758c-4.849,0-8.841-1.235-11.979-4.229
		c-2.757-2.661-4.468-6.939-4.468-11.931c0.048-9.554,6.607-16.541,17.349-16.541c3.708,0,6.607,0.809,7.985,1.475l-0.998,3.374
		c-1.711-0.761-3.85-1.378-7.082-1.378c-7.795,0-12.881,4.848-12.881,12.881c0,8.127,4.896,12.928,12.358,12.928
		c2.709,0,4.563-0.38,5.514-0.855v-9.554h-6.512v-3.327h10.552V271.513z"/>
	<path fill="#FFFFFF" d="M510.444,240.902h4.136v28.566h13.688v3.47h-17.824V240.902z"/>
	<path fill="#FFFFFF" d="M567.906,240.902v32.036h-4.136v-32.036H567.906z"/>
	<path fill="#FFFFFF" d="M611.251,272.938l-8.128-32.036h4.373l3.803,16.208c0.95,3.992,1.806,7.985,2.376,11.075h0.096
		c0.522-3.185,1.521-6.987,2.614-11.122l4.277-16.161h4.325l3.897,16.256c0.903,3.802,1.759,7.604,2.234,10.979h0.095
		c0.666-3.518,1.568-7.082,2.566-11.074l4.23-16.161h4.23l-9.078,32.036h-4.325l-4.041-16.684
		c-0.998-4.088-1.663-7.225-2.091-10.457h-0.095c-0.571,3.186-1.284,6.322-2.472,10.457l-4.563,16.684H611.251z"/>
	<path fill="#FFFFFF" d="M681.259,240.902v32.036h-4.136v-32.036H681.259z"/>
	<path fill="#FFFFFF" d="M741.763,271.893c-1.521,0.761-4.563,1.521-8.461,1.521c-9.031,0-15.828-5.703-15.828-16.207
		c0-10.029,6.797-16.826,16.731-16.826c3.992,0,6.512,0.855,7.604,1.426l-0.998,3.375c-1.568-0.761-3.803-1.331-6.464-1.331
		c-7.51,0-12.501,4.8-12.501,13.214c0,7.842,4.516,12.881,12.311,12.881c2.52,0,5.086-0.523,6.749-1.331L741.763,271.893z"/>
	<path fill="#FFFFFF" d="M794.423,257.919H781.97v11.55h13.879v3.47h-18.015v-32.036h17.302v3.47H781.97v10.125h12.453V257.919z"/>
</g>
</svg>
